<!-- Generated by IcoMoon.io -->
<svg version="1.1" xmlns="http://www.w3.org/2000/svg" width="35" height="32" viewBox="0 0 35 32">
<title>map</title>
<path fill="#97bd3d" d="M35.31 0v26.712l-13.283 4.846-9.913-4.42-12.115 4.862v-26.741l12.161-4.88 9.949 4.436 13.201-4.816zM12.115 2.782l-9.908 3.976v21.971l9.954-3.994 9.949 4.436 10.994-4.011v-22l-11.076 4.042-9.913-4.42zM6.069 18.187c0.914 0 1.655 0.744 1.655 1.661s-0.741 1.661-1.655 1.661c-0.914 0-1.655-0.744-1.655-1.661s0.741-1.661 1.655-1.661zM13.793 17.080c0.914 0 1.655 0.744 1.655 1.661s-0.741 1.661-1.655 1.661c-0.914 0-1.655-0.744-1.655-1.661s0.741-1.661 1.655-1.661zM29.013 8.908l1.561 1.566-2.53 2.538 2.53 2.539-1.561 1.566-2.53-2.538-2.53 2.538-1.561-1.566 2.529-2.539-2.529-2.538 1.561-1.566 2.53 2.537 2.53-2.537zM9.379 13.759c0.914 0 1.655 0.744 1.655 1.661s-0.741 1.661-1.655 1.661c-0.914 0-1.655-0.744-1.655-1.661s0.741-1.661 1.655-1.661zM18.207 13.759c0.914 0 1.655 0.744 1.655 1.661s-0.741 1.661-1.655 1.661c-0.914 0-1.655-0.744-1.655-1.661s0.741-1.661 1.655-1.661z"></path>
</svg>
