<!-- Generated by IcoMoon.io -->
<svg version="1.1" xmlns="http://www.w3.org/2000/svg" width="32" height="32" viewBox="0 0 32 32">
<title>question</title>
<path fill="none" stroke="#97bd3d" stroke-linejoin="round" stroke-linecap="round" stroke-miterlimit="4" stroke-width="2" d="M11.668 11.668c0-1.973 1.481-3.631 3.441-3.854s3.775 1.061 4.218 2.983c0.443 1.922-0.627 3.871-2.487 4.529-0.775 0.274-1.294 1.007-1.293 1.83v1.301"></path>
<path fill="none" stroke="#97bd3d" stroke-linejoin="round" stroke-linecap="round" stroke-miterlimit="4" stroke-width="2" d="M15.547 22.336c-0.268 0-0.485 0.217-0.485 0.485s0.217 0.485 0.485 0.485c0.268 0 0.485-0.217 0.485-0.485s-0.217-0.485-0.485-0.485"></path>
<path fill="none" stroke="#97bd3d" stroke-linejoin="miter" stroke-linecap="butt" stroke-miterlimit="4" stroke-width="2" d="M30.095 15.547c0 8.034-6.513 14.547-14.547 14.547s-14.547-6.513-14.547-14.547c0-8.034 6.513-14.547 14.547-14.547s14.547 6.513 14.547 14.547z"></path>
</svg>
