<!-- Generated by IcoMoon.io -->
<svg version="1.1" xmlns="http://www.w3.org/2000/svg" width="32" height="32" viewBox="0 0 32 32">
<title>settings</title>
<path fill="#97bd3d" d="M14.079 0.108c1.336-0.143 2.507-0.143 3.843 0v0l0.685 0.074 1.275 5.492 0.287 0.112 0.235 0.098 0.164 0.073 4.783-2.965 0.534 0.425c1.082 0.862 1.9 1.683 2.7 2.728v0l0.407 0.531-2.938 4.745 0.045 0.098c0.084 0.191 0.159 0.378 0.228 0.567v0l0.012 0.035 5.478 1.284 0.075 0.682c0.145 1.323 0.145 2.51 0 3.833v0l-0.075 0.685-5.478 1.256-0.022 0.067c-0.071 0.198-0.148 0.39-0.233 0.58v0l-0.026 0.056 2.939 4.777-0.418 0.532c-0.833 1.058-1.66 1.896-2.692 2.718v0l-0.534 0.425-4.783-2.966-0.164 0.074c-0.154 0.066-0.313 0.13-0.483 0.194v0l-0.039 0.014-1.273 5.451-0.667 0.086c-1.349 0.174-2.534 0.174-3.883 0v0l-0.667-0.086-1.274-5.451-0.286-0.111-0.235-0.098-0.165-0.074-4.782 2.966-0.534-0.425c-1.032-0.822-1.859-1.66-2.692-2.718v0l-0.418-0.532 2.938-4.777-0.025-0.056c-0.084-0.19-0.161-0.381-0.233-0.58v0l-0.023-0.067-5.477-1.256-0.075-0.685c-0.145-1.323-0.145-2.51 0-3.833v0l0.075-0.682 5.477-1.284 0.121-0.318 0.12-0.284 0.044-0.098-2.937-4.745 0.407-0.531c0.8-1.045 1.617-1.866 2.7-2.728v0l0.534-0.425 4.782 2.965 0.165-0.073c0.154-0.066 0.313-0.13 0.483-0.194v0l0.039-0.015 1.276-5.492zM16.72 1.957c-0.484-0.024-0.956-0.024-1.44 0v0l-0.313 0.019-1.201 5.172-0.755 0.263c-0.475 0.171-0.83 0.322-1.191 0.51v0l-0.489 0.255-4.531-2.809-0.084 0.072c-0.478 0.419-0.894 0.838-1.291 1.303v0l-0.055 0.065 2.79 4.508-0.246 0.485c-0.263 0.52-0.427 0.924-0.567 1.41v0l-0.158 0.545-5.213 1.222-0.020 0.308c-0.024 0.483-0.024 0.954 0 1.437v0l0.020 0.304 5.212 1.195 0.159 0.548c0.151 0.522 0.321 0.947 0.558 1.392v0l0.261 0.491-2.793 4.539 0.13 0.152c0.372 0.425 0.753 0.81 1.168 1.181v0l0.132 0.114 4.529-2.806 0.489 0.255c0.421 0.219 0.834 0.388 1.439 0.597v0l0.506 0.175 1.204 5.157 0.2 0.017c0.561 0.038 1.101 0.038 1.663 0v0l0.199-0.017 1.205-5.157 0.754-0.262c0.475-0.171 0.83-0.322 1.191-0.51v0l0.489-0.255 4.528 2.806 0.133-0.114c0.415-0.371 0.796-0.756 1.168-1.181v0l0.129-0.152-2.792-4.539 0.261-0.491c0.237-0.445 0.407-0.871 0.558-1.392v0l0.159-0.548 5.211-1.195 0.021-0.304c0.024-0.483 0.024-0.954 0-1.437v0l-0.021-0.308-5.212-1.222-0.158-0.545c-0.141-0.486-0.304-0.89-0.567-1.41v0l-0.246-0.485 2.789-4.508-0.054-0.065c-0.397-0.465-0.814-0.884-1.291-1.303v0l-0.085-0.072-4.53 2.809-0.489-0.255c-0.421-0.219-0.834-0.388-1.439-0.597v0l-0.506-0.175-1.202-5.172zM16 11.636c2.41 0 4.364 1.954 4.364 4.364s-1.954 4.364-4.364 4.364c-2.41 0-4.364-1.954-4.364-4.364s1.954-4.364 4.364-4.364zM16 13.576c-1.339 0-2.424 1.085-2.424 2.424s1.085 2.424 2.424 2.424c1.339 0 2.424-1.085 2.424-2.424s-1.085-2.424-2.424-2.424z"></path>
</svg>
