<!-- Generated by IcoMoon.io -->
<svg version="1.1" xmlns="http://www.w3.org/2000/svg" width="33" height="32" viewBox="0 0 33 32">
<title>arrow</title>
<path fill="#97bd3d" d="M30.258 29.101c1.599-0.576 2.441-2.586 1.337-4.1-2.16-2.962-3.971-6.076-5.645-9.32-1.376-2.665-5.381-0.488-4.462 2.114l-0.011 0.002c0.769 1.915 1.667 3.753 2.671 5.539-10.564-3.504-18-11.989-22.216-22.43-0.319-0.791-1.66-0.64-1.511 0.274 1.851 11.36 11.169 20.64 21.867 24.736-0.443 0.151-0.887 0.299-1.33 0.45-3.4 1.158-1.469 6.545 1.914 5.354 2.465-0.867 4.929-1.733 7.387-2.618z"></path>
</svg>
