<!-- Generated by IcoMoon.io -->
<svg version="1.1" xmlns="http://www.w3.org/2000/svg" width="33" height="32" viewBox="0 0 33 32">
<title>error</title>
<path fill="#efdf9e" d="M3.482 19.088v4.080c0 2.357 1.325 4.37 3.345 5.584l0.338 0.202c3.137 1.913 6.931 3.046 10.99 3.046 4.235 0 8.183-1.233 11.503-3.361l-0.085 0.051c1.808-1.161 2.99-3.161 2.99-5.437 0-0 0-0 0-0v0-5.111z"></path>
<path fill="#305636" d="M32.567 19.248c0 4.165-6.554 7.55-14.575 7.548s-14.511-3.38-14.51-7.544c0-0.406 0.089-1.11 0.089-1.11 1.1-3.598 7.191-6.43 14.425-6.428 7.66 0 14.029 3.014 14.571 6.923z"></path>
<path fill="#3a6843" d="M32.568 18.565c0 4.165-6.498 7.541-14.513 7.541s-14.513-3.376-14.513-7.541c0-4.165 6.498-7.541 14.513-7.541s14.513 3.376 14.513 7.541z"></path>
<path fill="#274435" opacity="0.7" d="M19.271 20.514l-6.454-4.398c-1.647-0.354-3.7-0.411-5.059 0.575-0.538 0.391-1.195 1.495-0.091 2.234 0.367 0.234 0.789 0.432 1.238 0.572l0.038 0.010c-0.040-0.013-0.081-0.025-0.123-0.037l-0.23-0.062-1.353-0.345-0.665-0.172c-0.028-0.007-0.055-0.014-0.080-0.018l-0.074-0.014c-0.034-0.006-0.074-0.009-0.114-0.010h-0.001c-0.059 0-0.076 0.016-0.020 0.046l0.959 0.511c0.177 0.091 0.385 0.173 0.602 0.233l0.024 0.006 0.838 0.25c-0.398-0.076-0.793-0.141-1.176-0.194-0.527-0.072-1.064-0.135-1.549-0.166-0.084 0-0.079 0.015-0.017 0.040 0.022 0.009 0.048 0.018 0.075 0.024l0.004 0.001c0.296 0.079 0.583 0.153 0.865 0.23l0.916 0.224c1.61 0.377 2.9 0.638 3.772 0.805l-2.064-0.37-0.676-0.135c-0.462-0.095-1.002-0.159-1.553-0.178l-0.016-0-1.405-0.022c-0.078 0-0.075 0.022-0.022 0.044 0.040 0.017 0.087 0.030 0.136 0.036l0.003 0 3.229 0.483 3.377 0.354 0.857-0.623c0.034-0.033 0.559-0.094 0.559-0.094 2.751 0.213 5.253 0.161 5.253 0.161zM11.62 20.238l-0.055 0.367-2.242-0.958-0.074-0.029-0.154-0.055c0.746 0.228 1.645 0.422 2.566 0.544l0.088 0.010c-0.085 0.028-0.135 0.068-0.129 0.122z"></path>
<path fill="#d7d9b0" opacity="0.4" d="M21.549 20.078c0.050 0.098-0.175 0.314-0.502 0.483s-0.635 0.227-0.685 0.13c-0.050-0.098 0.175-0.314 0.502-0.483s0.635-0.227 0.685-0.13z"></path>
<path fill="#c68477" d="M20.424 7.674c-0.104-0.049-0.083-0.135-0.244-0.191l-1.035 1.668 0.402 0.177c0.2 0.089 0.345-0.087 0.399-0.189l0.568-1.244c0.056-0.132 0.036-0.162-0.091-0.222z"></path>
<path fill="#d58f7e" d="M20.424 7.474c-0.151-0.070-0.338-0.143-0.531-0.204l-0.036-0.010c0.053 0.022 0.102 0.043 0.145 0.063 0.089 0.045 0.15 0.136 0.15 0.241 0 0.037-0.008 0.073-0.022 0.106l0.001-0.002-0.575 1.249c-0.052 0.075-0.134 0.126-0.229 0.134l-0.001 0 0.316 0.137c0.026 0.009 0.056 0.013 0.088 0.013 0.1 0 0.188-0.051 0.241-0.127l0.001-0.001 0.575-1.249c0.015-0.033 0.024-0.071 0.024-0.111 0-0.104-0.059-0.194-0.145-0.239l-0.001-0.001z"></path>
<path fill="#d58f7e" d="M11.384 13.094l0.023 1.015v1.739c0 0.002 0 0.005 0 0.008 0 0.234-0.051 0.455-0.142 0.655l0.004-0.010c-0.207 0.465-0.328 1.007-0.328 1.577 0 0.117 0.005 0.233 0.015 0.348l-0.001-0.015c0.024 0.048 1.84 1.304 1.84 1.304l4.899 0.31 1.578 0.489 4.205-0.676c0.283-0.046 0.535-0.15 0.754-0.301l-0.006 0.004 0.741-0.503c0.123-0.085 0.227-0.188 0.309-0.308l0.003-0.004 0.394-0.581c0.128-0.185 0.204-0.413 0.204-0.659 0-0.097-0.012-0.191-0.034-0.281l0.002 0.008-0.492-2.062c-0.020-0.081-0.032-0.174-0.032-0.27 0-0.001 0-0.002 0-0.002v0-0.92c0-0.206-0.053-0.4-0.147-0.568l0.003 0.006c-0.090-0.162-0.144-0.356-0.144-0.562v0-1.211z"></path>
<path fill="#eab988" d="M22.411 20.016l1.046-0.163c0.302-0.049 0.572-0.16 0.806-0.319l-0.007 0.004 0.707-0.481c0.123-0.085 0.227-0.188 0.309-0.308l0.003-0.004 0.394-0.581c0.128-0.185 0.204-0.413 0.204-0.659 0-0.097-0.012-0.191-0.034-0.281l0.002 0.008-0.492-2.062c-0.020-0.081-0.032-0.174-0.032-0.27 0-0.001 0-0.002 0-0.002v0-0.974c0.002-0.024 0.003-0.053 0.003-0.081 0-0.168-0.034-0.328-0.095-0.473l0.003 0.008c-0.139-0.264 0.016-1.808 0-1.938l-3.523 2.393c1.448 3.66 0.707 6.183 0.707 6.183z"></path>
<path fill="#f6eed3" d="M22.193 10.084s-6.428-1.418-10.385 2.070c-0.19 0.164-0.326 0.385-0.384 0.636l-0.002 0.008c-0.101 0.474-0.081 1.157 1.639 1.563 1.035 0.271 9.429 0.634 11.998-2.357 0.155-0.181 0.417-1.143-0.444-1.443 0 0.025-6.588 1.595-6.588 1.595z"></path>
<path fill="#eab988" d="M19.271 20.514l-1.117-4.268-0.461 3.78z"></path>
<path fill="#d58f7e" d="M22.189 10.084v1.076l-4.165 0.998z"></path>
<path fill="#463c56" d="M18.698 6.46l1.621 0.85c0.061 0.032 0.102 0.096 0.102 0.168 0 0.031-0.008 0.061-0.021 0.087l0-0.001-1.265 2.475c-0.007 0.015-0.014 0.029-0.020 0.044l-0.673 1.75-2.148-1.085 1.946-4.134c0.055-0.114 0.169-0.191 0.302-0.191 0.057 0 0.11 0.014 0.157 0.039l-0.002-0.001z"></path>
<path fill="#605772" d="M17.116 8.542l-1.066 2.021 0.246 0.183 1.474-1.589c0.039-0.042 0.072-0.089 0.098-0.141l0.002-0.004 1.080-2.147c0.087-0.175 0.055-0.262-0.124-0.345l-0.178-0.082c-0.041-0.022-0.090-0.035-0.141-0.035-0.111 0-0.207 0.060-0.259 0.149l-0.001 0.001z"></path>
<path fill="#564f66" d="M18.826 6.527l-0.178-0.087c-0.041-0.022-0.089-0.035-0.14-0.035-0.071 0-0.137 0.025-0.188 0.066l0.001-0c0.010-0.001 0.022-0.002 0.034-0.002 0.050 0 0.098 0.013 0.14 0.035l-0.002-0.001 0.178 0.093c0.181 0.077 0.213 0.164 0.124 0.339l-1.079 2.148c-0.028 0.055-0.062 0.102-0.1 0.144l0-0-1.38 1.483 0.056 0.043 1.474-1.589c0.039-0.042 0.072-0.089 0.098-0.141l0.002-0.004 1.080-2.147c0.091-0.181 0.059-0.268-0.121-0.345z"></path>
<path fill="#b3bce5" d="M18.444 11.832l-0.118 0.245-1.798 0.636-0.4-0.44 0.123-0.391-0.305 0.232-0.451-0.504 0.801-0.864z"></path>
<path fill="#abb4d8" d="M16.302 10.747l-0.006 0.007 2.026 1.023-0.118 0.246-1.74 0.615 0.069 0.075 1.8-0.636 0.117-0.245z"></path>
<path fill="#8b9faf" d="M16.296 10.747l-0.246-0.183-0.555 1.046z"></path>
<path fill="#c68477" d="M18.498 6.751c-0.655-0.299-2.408-0.728-3.519-0.983-0.732-0.17-1.372-0.401-1.976-0.696l0.055 0.024c-2.008-0.957-6.492-3.102-6.504-3.102-2.997-1.388-4.629-1.72-5.478-1.751-0.588-0.022-1.097 0.156-1.076 0.744 0.038 1.051 0.906 1.095 1.279 1.035 1.866-0.297 4.663 1.255 4.663 1.255l5.803 3.048c0.202 0.106 0.408 0.204 0.619 0.291 0 0 3.768 1.543 5.059 2.096 0.246 0.105 0.419-0.104 0.49-0.223l0.698-1.474c0.068-0.158 0.043-0.192-0.113-0.263zM1.2 1.537c-0.019 0.003-0.040 0.005-0.062 0.005-0.216 0-0.391-0.175-0.391-0.391s0.175-0.391 0.391-0.391c0.216 0 0.391 0.175 0.391 0.391 0 0.022-0.002 0.043-0.005 0.064l0-0.002c-0.027 0.167-0.157 0.297-0.322 0.324l-0.002 0z"></path>
<path fill="#cc8a81" d="M6.486 1.905c-2.998-1.389-4.562-1.632-5.41-1.663-0.588-0.022-1.097 0.156-1.076 0.744 0.038 1.051 0.905 1.087 1.279 1.035 1.88-0.259 4.479 1.157 4.479 1.157 0.073-0.034 0.134-0.083 0.182-0.143l0.001-0.001c0.253-0.331 0.553-1.129 0.546-1.129zM1.197 1.537c-0.019 0.003-0.040 0.005-0.062 0.005-0.216 0-0.391-0.175-0.391-0.391s0.175-0.391 0.391-0.391c0.216 0 0.391 0.175 0.391 0.391 0 0.022-0.002 0.043-0.005 0.064l0-0.002c-0.027 0.166-0.155 0.296-0.319 0.324l-0.002 0z"></path>
<path fill="#80929e" d="M16.239 10.704l-0.615 0.662-0.129 0.244 0.801-0.864z"></path>
<path fill="#d58f7e" d="M18.498 6.509c-0.655-0.299-2.408-0.728-3.519-0.983-0.731-0.17-1.372-0.401-1.976-0.695l0.054 0.024c-2.008-0.959-6.492-3.105-6.503-3.105-2.998-1.386-4.631-1.718-5.48-1.75-0.015-0.001-0.034-0.001-0.052-0.001-0.565 0-1.023 0.458-1.023 1.023 0 0.004 0 0.009 0 0.014v-0.001c0.023 0.782 0.906 0.805 1.279 0.746 1.866-0.298 4.663 1.253 4.663 1.253l5.803 3.044c0.202 0.106 0.408 0.204 0.619 0.291l5.185 2.17c0.030 0.009 0.065 0.014 0.101 0.014 0.125 0 0.235-0.063 0.302-0.158l0.001-0.001 0.704-1.478c0.016-0.036 0.025-0.078 0.025-0.122 0-0.126-0.074-0.234-0.18-0.284l-0.002-0.001zM1.138 1.302c-0.216 0-0.391-0.175-0.391-0.391s0.175-0.391 0.391-0.391c0.216 0 0.391 0.175 0.391 0.391v0c0 0.216-0.175 0.391-0.391 0.391v0z"></path>
<path fill="#e59989" d="M1.075 0c-0.015-0.001-0.034-0.001-0.052-0.001-0.565 0-1.023 0.458-1.023 1.023 0 0.004 0 0.009 0 0.014v-0.001c0.023 0.782 0.906 0.805 1.279 0.746 1.866-0.298 4.663 1.253 4.663 1.253s0.624-1.282 0.613-1.282c-2.997-1.388-4.629-1.72-5.479-1.752zM1.138 1.302c-0.216 0-0.391-0.175-0.391-0.391s0.175-0.391 0.391-0.391c0.216 0 0.391 0.175 0.391 0.391v0c0 0.216-0.175 0.391-0.391 0.391v0z"></path>
<path fill="#abb4d8" d="M16.127 12.273l-0.077-0.072 0.077-0.225 0.123-0.093z"></path>
<path fill="#d7d9b0" opacity="0.4" d="M24.697 21.012c0.034 0.065-0.118 0.211-0.338 0.325s-0.427 0.153-0.461 0.088c-0.034-0.065 0.118-0.211 0.338-0.325s0.427-0.153 0.461-0.088z"></path>
<path fill="#d7d9b0" opacity="0.4" d="M24.953 21.947c0.034 0.065-0.118 0.211-0.338 0.325s-0.427 0.153-0.461 0.088c-0.034-0.065 0.118-0.211 0.338-0.325s0.427-0.153 0.461-0.088z"></path>
<path fill="#d7d9b0" opacity="0.4" d="M30.569 19.048c0.034 0.065-0.118 0.211-0.338 0.325s-0.427 0.153-0.461 0.088c-0.034-0.065 0.118-0.211 0.338-0.325s0.427-0.153 0.461-0.088z"></path>
<path fill="#d7d9b0" opacity="0.4" d="M26.677 15.521c0.034 0.065-0.118 0.211-0.338 0.325s-0.427 0.153-0.461 0.088c-0.034-0.065 0.118-0.211 0.338-0.325s0.427-0.153 0.461-0.088z"></path>
<path fill="#d7d9b0" opacity="0.4" d="M26.54 21.011c0.034 0.065-0.118 0.211-0.338 0.325s-0.427 0.153-0.461 0.088c-0.034-0.065 0.118-0.211 0.338-0.325s0.427-0.153 0.461-0.088z"></path>
<path fill="#d7d9b0" opacity="0.4" d="M30.164 17.555c0.034 0.065-0.118 0.211-0.338 0.325s-0.427 0.153-0.461 0.088c-0.034-0.065 0.118-0.211 0.338-0.325s0.427-0.153 0.461-0.088z"></path>
<path fill="#d7d9b0" opacity="0.4" d="M23.45 20.662c0.034 0.065-0.118 0.211-0.338 0.325s-0.427 0.153-0.461 0.088c-0.034-0.065 0.118-0.211 0.338-0.325s0.427-0.153 0.461-0.088z"></path>
<path fill="#d7d9b0" opacity="0.4" d="M11.786 21.629c0.034 0.065-0.118 0.211-0.338 0.325s-0.427 0.153-0.461 0.088c-0.034-0.065 0.118-0.211 0.338-0.325s0.427-0.153 0.461-0.088z"></path>
<path fill="#d7d9b0" opacity="0.4" d="M25.754 20.728c0.023 0.045-0.080 0.144-0.23 0.221s-0.29 0.104-0.313 0.060c-0.023-0.045 0.080-0.144 0.23-0.221s0.29-0.104 0.313-0.060z"></path>
<path fill="#d7d9b0" opacity="0.4" d="M29.512 18.788c0.023 0.045-0.080 0.144-0.23 0.221s-0.29 0.104-0.313 0.060c-0.023-0.045 0.080-0.144 0.23-0.221s0.29-0.104 0.313-0.060z"></path>
<path fill="#d7d9b0" opacity="0.4" d="M26.412 16.55c0.023 0.045-0.080 0.144-0.23 0.221s-0.29 0.104-0.313 0.060c-0.023-0.045 0.080-0.144 0.23-0.221s0.29-0.104 0.313-0.060z"></path>
<path fill="#d7d9b0" opacity="0.4" d="M22.251 22.013c0.023 0.045-0.080 0.144-0.23 0.221s-0.29 0.104-0.313 0.060c-0.023-0.045 0.080-0.144 0.23-0.221s0.29-0.104 0.313-0.060z"></path>
<path fill="#d7d9b0" opacity="0.4" d="M22.186 24.080c0.023 0.045-0.080 0.144-0.23 0.221s-0.29 0.104-0.313 0.060c-0.023-0.045 0.080-0.144 0.23-0.221s0.29-0.104 0.313-0.060z"></path>
<path fill="#d7d9b0" opacity="0.4" d="M15.766 24.862c0.023 0.045-0.080 0.144-0.23 0.221s-0.29 0.104-0.313 0.060c-0.023-0.045 0.080-0.144 0.23-0.221s0.29-0.104 0.313-0.060z"></path>
<path fill="#d7d9b0" opacity="0.4" d="M19.542 21.456c0.023 0.045-0.080 0.144-0.23 0.221s-0.29 0.104-0.313 0.060c-0.023-0.045 0.080-0.144 0.23-0.221s0.29-0.104 0.313-0.060z"></path>
<path fill="#d7d9b0" opacity="0.4" d="M12.902 22.315c0.023 0.045-0.080 0.144-0.23 0.221s-0.29 0.104-0.313 0.060c-0.023-0.045 0.080-0.144 0.23-0.221s0.29-0.104 0.313-0.060z"></path>
<path fill="#d7d9b0" opacity="0.4" d="M10.94 14.86c0.023 0.045-0.080 0.144-0.23 0.221s-0.29 0.104-0.313 0.060c-0.023-0.045 0.080-0.144 0.23-0.221s0.29-0.104 0.313-0.060z"></path>
<path fill="#d7d9b0" opacity="0.4" d="M26.734 19.471c0.050 0.098-0.175 0.314-0.502 0.483s-0.635 0.227-0.685 0.13c-0.050-0.098 0.175-0.314 0.502-0.483s0.635-0.227 0.685-0.13z"></path>
<path fill="#000" d="M12.636 19.768l0.588-2.936c0.015-0.070 0.023-0.151 0.023-0.233 0-0.168-0.035-0.327-0.097-0.472l0.003 0.008-0.663-1.557c-0.032-0.076-0.106-0.128-0.192-0.128-0.089 0-0.166 0.056-0.195 0.135l-0 0.001-0.567 1.533c-0.047 0.123-0.074 0.265-0.074 0.413 0 0.108 0.014 0.212 0.041 0.312l-0.002-0.008 1.079 4.037c0.002 0.014 0.014 0.026 0.029 0.026 0.016 0 0.029-0.013 0.029-0.029 0-0.001-0-0.002-0-0.004v0z"></path>
<path fill="#4b774e" opacity="0.4" d="M13.152 16.134l-0.663-1.557c-0.032-0.076-0.106-0.128-0.192-0.128-0.089 0-0.166 0.056-0.195 0.135l-0 0.001-0.075 0.204 0.649 1.522c0.060 0.137 0.094 0.296 0.094 0.464 0 0.082-0.008 0.163-0.024 0.241l0.001-0.008-0.514 2.569 0.345 1.295c0.002 0.014 0.014 0.026 0.029 0.026 0.016 0 0.029-0.013 0.029-0.029 0-0.001-0-0.002-0-0.004v0-1.098l0.589-2.936c0.015-0.070 0.023-0.151 0.023-0.233 0-0.168-0.035-0.327-0.097-0.472l0.003 0.008z"></path>
<path fill="#000" d="M12.603 21.072v-1.319c-0.020-1.182-0.674-2.207-1.636-2.751l-0.016-0.008c-0.38-0.222-0.822-0.395-1.291-0.494l-0.029-0.005c-0.007-0.001-0.014-0.002-0.022-0.002-0.069 0-0.124 0.056-0.124 0.124 0 0.026 0.008 0.049 0.021 0.069l-0-0c1.534 3.132 3.098 4.387 3.098 4.387z"></path>
<path fill="#4b774e" opacity="0.4" d="M10.234 18.039c0.483 0.093 0.683-0.485 1.073-0.266 0.466 0.264 0.847 0.627 1.125 1.062l0.008 0.013c-0.251-0.799-0.783-1.448-1.479-1.843l-0.016-0.008c-0.38-0.222-0.822-0.395-1.291-0.494l-0.029-0.005c-0.007-0.001-0.014-0.002-0.022-0.002-0.069 0-0.124 0.056-0.124 0.124 0 0.026 0.008 0.049 0.021 0.069l-0-0c0.115 0.236 0.23 0.46 0.345 0.674z"></path>
<path fill="#000" d="M12.596 21.072l-2.113-2.108c-0.314-0.313-0.741-0.513-1.214-0.535l-0.004-0-1.495-0.064c-0.002-0-0.004-0-0.006-0-0.072 0-0.131 0.059-0.131 0.131 0 0.046 0.023 0.086 0.058 0.109l0 0 2.185 1.449z"></path>
<path fill="#4b774e" opacity="0.4" d="M8.326 18.894l1.495 0.064c0.393 0.018 0.75 0.156 1.039 0.379l-0.004-0.003-0.373-0.371c-0.314-0.313-0.741-0.513-1.214-0.535l-0.004-0-1.495-0.064c-0.002-0-0.004-0-0.006-0-0.072 0-0.131 0.059-0.131 0.131 0 0.046 0.023 0.086 0.058 0.109l0 0 0.522 0.345c0.024-0.034 0.062-0.055 0.106-0.055 0.002 0 0.004 0 0.006 0h-0z"></path>
<path fill="#000" d="M12.596 19.753l1.265-1.15c0.382-0.348 0.892-0.562 1.451-0.562 0.080 0 0.16 0.004 0.238 0.013l-0.010-0.001 1.61 0.171c0.087 0.008 0.154 0.081 0.154 0.169 0 0.074-0.047 0.137-0.113 0.16l-0.001 0-1.7 0.623c-0.181 0.066-0.337 0.149-0.481 0.248l0.007-0.005-2.415 1.651z"></path>
<path fill="#4b774e" opacity="0.4" d="M17.194 18.236c-0.018 0.023-0.043 0.041-0.070 0.051l-0.001 0-1.7 0.623c-0.181 0.067-0.338 0.149-0.482 0.248l0.007-0.005-2.353 1.61v0.31l2.415-1.651c0.136-0.095 0.293-0.177 0.459-0.239l0.015-0.005 1.7-0.623c0.069-0.023 0.119-0.087 0.119-0.162 0-0.072-0.044-0.133-0.107-0.158l-0.001-0z"></path>
</svg>
